<mxfile host="app.diagrams.net" agent="Mozilla/5.0 (Windows NT 10.0; Win64; x64) AppleWebKit/537.36 (KHTML, like Gecko) Chrome/130.0.0.0 YaBrowser/24.12.0.0 Safari/537.36" version="25.0.3">
  <diagram name="Страница — 1" id="WRZnwX8jYTNk-mHh2Qv5">
    <mxGraphModel dx="2288" dy="770" grid="1" gridSize="10" guides="1" tooltips="1" connect="1" arrows="1" fold="1" page="1" pageScale="1" pageWidth="827" pageHeight="1169" math="0" shadow="0">
      <root>
        <mxCell id="0" />
        <mxCell id="1" parent="0" />
        <mxCell id="WB_F4It5KlssIyPXTTCA-70" value="" style="rounded=0;whiteSpace=wrap;html=1;" parent="1" vertex="1">
          <mxGeometry x="-460" width="1650" height="510" as="geometry" />
        </mxCell>
        <mxCell id="WB_F4It5KlssIyPXTTCA-1" value="" style="rounded=0;whiteSpace=wrap;html=1;" parent="1" vertex="1">
          <mxGeometry x="-420" y="40" width="840" height="430" as="geometry" />
        </mxCell>
        <mxCell id="WB_F4It5KlssIyPXTTCA-43" value="" style="rounded=0;whiteSpace=wrap;html=1;" parent="1" vertex="1">
          <mxGeometry x="85" y="103.75" width="180" height="306.25" as="geometry" />
        </mxCell>
        <mxCell id="WB_F4It5KlssIyPXTTCA-42" value="" style="rounded=0;whiteSpace=wrap;html=1;" parent="1" vertex="1">
          <mxGeometry x="-380" y="103.75" width="180" height="306.25" as="geometry" />
        </mxCell>
        <mxCell id="WB_F4It5KlssIyPXTTCA-2" value="Клиентская часть" style="text;html=1;align=center;verticalAlign=middle;whiteSpace=wrap;rounded=0;" parent="1" vertex="1">
          <mxGeometry x="-420" y="40" width="120" height="30" as="geometry" />
        </mxCell>
        <mxCell id="WB_F4It5KlssIyPXTTCA-3" value="" style="rounded=0;whiteSpace=wrap;html=1;" parent="1" vertex="1">
          <mxGeometry x="610" y="104" width="530" height="350" as="geometry" />
        </mxCell>
        <mxCell id="WB_F4It5KlssIyPXTTCA-4" value="HTTP&amp;nbsp; методы" style="rounded=0;whiteSpace=wrap;html=1;rotation=270;" parent="1" vertex="1">
          <mxGeometry x="460" y="245" width="120" height="60" as="geometry" />
        </mxCell>
        <mxCell id="WB_F4It5KlssIyPXTTCA-7" value="JSON" style="html=1;shadow=0;dashed=0;align=center;verticalAlign=middle;shape=mxgraph.arrows2.twoWayArrow;dy=0.6;dx=35;" parent="1" vertex="1">
          <mxGeometry x="380" y="244" width="110" height="50" as="geometry" />
        </mxCell>
        <mxCell id="WB_F4It5KlssIyPXTTCA-8" value="HTTP" style="html=1;shadow=0;dashed=0;align=center;verticalAlign=middle;shape=mxgraph.arrows2.twoWayArrow;dy=0.6;dx=35;" parent="1" vertex="1">
          <mxGeometry x="550" y="250" width="100" height="50" as="geometry" />
        </mxCell>
        <mxCell id="WB_F4It5KlssIyPXTTCA-9" value="Серверная часть" style="text;html=1;align=center;verticalAlign=middle;whiteSpace=wrap;rounded=0;" parent="1" vertex="1">
          <mxGeometry x="1030" y="103.75" width="110" height="30" as="geometry" />
        </mxCell>
        <mxCell id="WB_F4It5KlssIyPXTTCA-16" value="Справочная подсистема" style="rounded=0;whiteSpace=wrap;html=1;" parent="1" vertex="1">
          <mxGeometry x="-155" y="172.5" width="150" height="60" as="geometry" />
        </mxCell>
        <mxCell id="WB_F4It5KlssIyPXTTCA-17" value="Подсистема взаимодействия с клиентской частью" style="rounded=0;whiteSpace=wrap;html=1;" parent="1" vertex="1">
          <mxGeometry x="650" y="114" width="100" height="330" as="geometry" />
        </mxCell>
        <mxCell id="WB_F4It5KlssIyPXTTCA-18" value="БД" style="shape=cylinder3;whiteSpace=wrap;html=1;boundedLbl=1;backgroundOutline=1;size=15;" parent="1" vertex="1">
          <mxGeometry x="1010" y="374" width="80" height="60" as="geometry" />
        </mxCell>
        <mxCell id="WB_F4It5KlssIyPXTTCA-19" value="Подсистема аутентификации" style="rounded=0;whiteSpace=wrap;html=1;" parent="1" vertex="1">
          <mxGeometry x="810" y="192.5" width="120" height="40" as="geometry" />
        </mxCell>
        <mxCell id="WB_F4It5KlssIyPXTTCA-20" value="Подсистема выдачи билета/вопроса" style="rounded=0;whiteSpace=wrap;html=1;" parent="1" vertex="1">
          <mxGeometry x="810" y="274" width="120" height="60" as="geometry" />
        </mxCell>
        <mxCell id="WB_F4It5KlssIyPXTTCA-25" value="Подсистема сбора статистики" style="rounded=0;whiteSpace=wrap;html=1;" parent="1" vertex="1">
          <mxGeometry x="810" y="364" width="120" height="60" as="geometry" />
        </mxCell>
        <mxCell id="WB_F4It5KlssIyPXTTCA-27" value="Подсистема взаимодействия с БД" style="rounded=0;whiteSpace=wrap;html=1;" parent="1" vertex="1">
          <mxGeometry x="985" y="294" width="130" height="45" as="geometry" />
        </mxCell>
        <mxCell id="WB_F4It5KlssIyPXTTCA-28" value="Подсистема авторизации" style="rounded=0;whiteSpace=wrap;html=1;" parent="1" vertex="1">
          <mxGeometry x="-75" y="125" width="140" height="35" as="geometry" />
        </mxCell>
        <mxCell id="WB_F4It5KlssIyPXTTCA-35" value="" style="endArrow=none;html=1;rounded=0;entryX=0.5;entryY=1;entryDx=0;entryDy=0;exitX=0.5;exitY=0.333;exitDx=0;exitDy=0;exitPerimeter=0;" parent="1" source="WB_F4It5KlssIyPXTTCA-18" target="WB_F4It5KlssIyPXTTCA-27" edge="1">
          <mxGeometry width="50" height="50" relative="1" as="geometry">
            <mxPoint x="970" y="414" as="sourcePoint" />
            <mxPoint x="1020" y="364" as="targetPoint" />
          </mxGeometry>
        </mxCell>
        <mxCell id="WB_F4It5KlssIyPXTTCA-36" value="Подсистема взаимодействия с серверной частью" style="rounded=0;whiteSpace=wrap;html=1;" parent="1" vertex="1">
          <mxGeometry x="280" y="50" width="100" height="410" as="geometry" />
        </mxCell>
        <mxCell id="WB_F4It5KlssIyPXTTCA-37" value="Подсистема составления вопроса" style="rounded=0;whiteSpace=wrap;html=1;" parent="1" vertex="1">
          <mxGeometry x="120" y="314" width="120" height="60" as="geometry" />
        </mxCell>
        <mxCell id="WB_F4It5KlssIyPXTTCA-38" value="Подсистема просмотра статистики" style="rounded=0;whiteSpace=wrap;html=1;" parent="1" vertex="1">
          <mxGeometry x="-65" y="330" width="120" height="60" as="geometry" />
        </mxCell>
        <mxCell id="WB_F4It5KlssIyPXTTCA-39" value="Подсистема выполнения экзаменационного билета" style="rounded=0;whiteSpace=wrap;html=1;" parent="1" vertex="1">
          <mxGeometry x="-350" y="226.88" width="120" height="60" as="geometry" />
        </mxCell>
        <mxCell id="WB_F4It5KlssIyPXTTCA-40" value="Подсистема визуализации" style="rounded=0;whiteSpace=wrap;html=1;" parent="1" vertex="1">
          <mxGeometry x="-65" y="404" width="120" height="50" as="geometry" />
        </mxCell>
        <mxCell id="WB_F4It5KlssIyPXTTCA-45" value="Подсистема &quot;Обучаемый&quot;" style="text;html=1;align=center;verticalAlign=middle;whiteSpace=wrap;rounded=0;" parent="1" vertex="1">
          <mxGeometry x="-370" y="114" width="160" height="30" as="geometry" />
        </mxCell>
        <mxCell id="WB_F4It5KlssIyPXTTCA-46" value="Подсистема &quot;Администратор&quot;" style="text;html=1;align=center;verticalAlign=middle;whiteSpace=wrap;rounded=0;" parent="1" vertex="1">
          <mxGeometry x="90" y="104" width="170" height="30" as="geometry" />
        </mxCell>
        <mxCell id="WB_F4It5KlssIyPXTTCA-53" value="" style="endArrow=none;html=1;rounded=0;entryX=0;entryY=0.5;entryDx=0;entryDy=0;exitX=1.002;exitY=0.838;exitDx=0;exitDy=0;exitPerimeter=0;" parent="1" source="WB_F4It5KlssIyPXTTCA-42" target="WB_F4It5KlssIyPXTTCA-38" edge="1">
          <mxGeometry width="50" height="50" relative="1" as="geometry">
            <mxPoint x="-150" y="430" as="sourcePoint" />
            <mxPoint x="-100" y="380" as="targetPoint" />
          </mxGeometry>
        </mxCell>
        <mxCell id="WB_F4It5KlssIyPXTTCA-54" value="" style="endArrow=none;html=1;rounded=0;entryX=1.006;entryY=0.467;entryDx=0;entryDy=0;entryPerimeter=0;exitX=0;exitY=0.83;exitDx=0;exitDy=0;exitPerimeter=0;" parent="1" source="WB_F4It5KlssIyPXTTCA-43" target="WB_F4It5KlssIyPXTTCA-38" edge="1">
          <mxGeometry width="50" height="50" relative="1" as="geometry">
            <mxPoint x="20" y="450" as="sourcePoint" />
            <mxPoint x="70" y="400" as="targetPoint" />
          </mxGeometry>
        </mxCell>
        <mxCell id="WB_F4It5KlssIyPXTTCA-55" value="" style="endArrow=none;html=1;rounded=0;entryX=0;entryY=0.5;entryDx=0;entryDy=0;exitX=1;exitY=0.128;exitDx=0;exitDy=0;exitPerimeter=0;" parent="1" source="WB_F4It5KlssIyPXTTCA-42" target="WB_F4It5KlssIyPXTTCA-28" edge="1">
          <mxGeometry width="50" height="50" relative="1" as="geometry">
            <mxPoint x="-130" y="210" as="sourcePoint" />
            <mxPoint x="-80" y="160" as="targetPoint" />
          </mxGeometry>
        </mxCell>
        <mxCell id="WB_F4It5KlssIyPXTTCA-56" value="" style="endArrow=none;html=1;rounded=0;entryX=0.004;entryY=0.127;entryDx=0;entryDy=0;entryPerimeter=0;exitX=1;exitY=0.5;exitDx=0;exitDy=0;" parent="1" source="WB_F4It5KlssIyPXTTCA-28" target="WB_F4It5KlssIyPXTTCA-43" edge="1">
          <mxGeometry width="50" height="50" relative="1" as="geometry">
            <mxPoint x="30" y="190" as="sourcePoint" />
            <mxPoint x="80" y="140" as="targetPoint" />
          </mxGeometry>
        </mxCell>
        <mxCell id="WB_F4It5KlssIyPXTTCA-57" value="" style="endArrow=none;html=1;rounded=0;exitX=0.002;exitY=0.92;exitDx=0;exitDy=0;exitPerimeter=0;entryX=1;entryY=0.5;entryDx=0;entryDy=0;" parent="1" source="WB_F4It5KlssIyPXTTCA-36" target="WB_F4It5KlssIyPXTTCA-40" edge="1">
          <mxGeometry width="50" height="50" relative="1" as="geometry">
            <mxPoint x="-40" y="450" as="sourcePoint" />
            <mxPoint x="130" y="430" as="targetPoint" />
            <Array as="points" />
          </mxGeometry>
        </mxCell>
        <mxCell id="WB_F4It5KlssIyPXTTCA-58" value="" style="endArrow=none;html=1;rounded=0;entryX=0.014;entryY=0.085;entryDx=0;entryDy=0;entryPerimeter=0;exitX=1;exitY=0.5;exitDx=0;exitDy=0;" parent="1" source="I8xdXOpHyziN62xiilrK-2" target="WB_F4It5KlssIyPXTTCA-36" edge="1">
          <mxGeometry width="50" height="50" relative="1" as="geometry">
            <mxPoint x="140" y="70" as="sourcePoint" />
            <mxPoint x="60" y="60" as="targetPoint" />
            <Array as="points" />
          </mxGeometry>
        </mxCell>
        <mxCell id="WB_F4It5KlssIyPXTTCA-59" value="" style="endArrow=none;html=1;rounded=0;entryX=-0.005;entryY=0.02;entryDx=0;entryDy=0;entryPerimeter=0;exitX=0.5;exitY=0;exitDx=0;exitDy=0;" parent="1" source="WB_F4It5KlssIyPXTTCA-42" target="WB_F4It5KlssIyPXTTCA-36" edge="1">
          <mxGeometry width="50" height="50" relative="1" as="geometry">
            <mxPoint x="-290" y="100" as="sourcePoint" />
            <mxPoint x="-80" y="50" as="targetPoint" />
            <Array as="points">
              <mxPoint x="-290" y="60" />
              <mxPoint x="-180" y="60" />
            </Array>
          </mxGeometry>
        </mxCell>
        <mxCell id="WB_F4It5KlssIyPXTTCA-60" value="" style="endArrow=none;html=1;rounded=0;exitX=0.993;exitY=0.846;exitDx=0;exitDy=0;exitPerimeter=0;entryX=0;entryY=0.5;entryDx=0;entryDy=0;" parent="1" source="WB_F4It5KlssIyPXTTCA-17" target="WB_F4It5KlssIyPXTTCA-25" edge="1">
          <mxGeometry width="50" height="50" relative="1" as="geometry">
            <mxPoint x="740" y="404" as="sourcePoint" />
            <mxPoint x="790" y="354" as="targetPoint" />
          </mxGeometry>
        </mxCell>
        <mxCell id="WB_F4It5KlssIyPXTTCA-61" value="" style="endArrow=none;html=1;rounded=0;exitX=1.006;exitY=0.576;exitDx=0;exitDy=0;exitPerimeter=0;entryX=0;entryY=0.5;entryDx=0;entryDy=0;" parent="1" source="WB_F4It5KlssIyPXTTCA-17" target="WB_F4It5KlssIyPXTTCA-20" edge="1">
          <mxGeometry width="50" height="50" relative="1" as="geometry">
            <mxPoint x="750" y="329" as="sourcePoint" />
            <mxPoint x="820.7106781186549" y="279" as="targetPoint" />
          </mxGeometry>
        </mxCell>
        <mxCell id="WB_F4It5KlssIyPXTTCA-64" value="" style="endArrow=none;html=1;rounded=0;entryX=0;entryY=0.5;entryDx=0;entryDy=0;exitX=0.991;exitY=0.301;exitDx=0;exitDy=0;exitPerimeter=0;" parent="1" source="WB_F4It5KlssIyPXTTCA-17" target="WB_F4It5KlssIyPXTTCA-19" edge="1">
          <mxGeometry width="50" height="50" relative="1" as="geometry">
            <mxPoint x="750" y="213" as="sourcePoint" />
            <mxPoint x="810" y="144" as="targetPoint" />
          </mxGeometry>
        </mxCell>
        <mxCell id="WB_F4It5KlssIyPXTTCA-65" value="" style="endArrow=none;html=1;rounded=0;exitX=1;exitY=0.5;exitDx=0;exitDy=0;entryX=0.914;entryY=-0.004;entryDx=0;entryDy=0;entryPerimeter=0;" parent="1" source="WB_F4It5KlssIyPXTTCA-19" target="WB_F4It5KlssIyPXTTCA-27" edge="1">
          <mxGeometry width="50" height="50" relative="1" as="geometry">
            <mxPoint x="980" y="214" as="sourcePoint" />
            <mxPoint x="1030" y="174" as="targetPoint" />
            <Array as="points">
              <mxPoint x="1104" y="210" />
            </Array>
          </mxGeometry>
        </mxCell>
        <mxCell id="WB_F4It5KlssIyPXTTCA-67" value="" style="endArrow=none;html=1;rounded=0;entryX=1;entryY=0.5;entryDx=0;entryDy=0;exitX=0.5;exitY=0;exitDx=0;exitDy=0;" parent="1" source="WB_F4It5KlssIyPXTTCA-27" target="WB_F4It5KlssIyPXTTCA-20" edge="1">
          <mxGeometry width="50" height="50" relative="1" as="geometry">
            <mxPoint x="760" y="524" as="sourcePoint" />
            <mxPoint x="810" y="474" as="targetPoint" />
            <Array as="points">
              <mxPoint x="1050" y="264" />
              <mxPoint x="950" y="264" />
              <mxPoint x="950" y="304" />
            </Array>
          </mxGeometry>
        </mxCell>
        <mxCell id="WB_F4It5KlssIyPXTTCA-68" value="" style="endArrow=none;html=1;rounded=0;exitX=1;exitY=0.5;exitDx=0;exitDy=0;entryX=-0.001;entryY=0.455;entryDx=0;entryDy=0;entryPerimeter=0;" parent="1" source="WB_F4It5KlssIyPXTTCA-25" target="WB_F4It5KlssIyPXTTCA-27" edge="1">
          <mxGeometry width="50" height="50" relative="1" as="geometry">
            <mxPoint x="940" y="414" as="sourcePoint" />
            <mxPoint x="990" y="364" as="targetPoint" />
            <Array as="points">
              <mxPoint x="970" y="394" />
              <mxPoint x="970" y="314" />
            </Array>
          </mxGeometry>
        </mxCell>
        <mxCell id="I8xdXOpHyziN62xiilrK-1" value="Подсистема формирования билета" style="rounded=0;whiteSpace=wrap;html=1;" parent="1" vertex="1">
          <mxGeometry x="120" y="144" width="120" height="60" as="geometry" />
        </mxCell>
        <mxCell id="I8xdXOpHyziN62xiilrK-2" value="Подсистема выполнения вопроса" style="rounded=0;whiteSpace=wrap;html=1;" parent="1" vertex="1">
          <mxGeometry x="-65" y="68.75" width="120" height="35" as="geometry" />
        </mxCell>
        <mxCell id="I8xdXOpHyziN62xiilrK-5" value="Подсистема проверки пдд выбора обучаемого" style="rounded=0;whiteSpace=wrap;html=1;" parent="1" vertex="1">
          <mxGeometry x="-140" y="249" width="120" height="60" as="geometry" />
        </mxCell>
        <mxCell id="I8xdXOpHyziN62xiilrK-6" value="" style="endArrow=none;html=1;rounded=0;entryX=0;entryY=0.5;entryDx=0;entryDy=0;exitX=0.998;exitY=0.322;exitDx=0;exitDy=0;exitPerimeter=0;" parent="1" source="WB_F4It5KlssIyPXTTCA-42" target="WB_F4It5KlssIyPXTTCA-16" edge="1">
          <mxGeometry width="50" height="50" relative="1" as="geometry">
            <mxPoint x="-30" y="310" as="sourcePoint" />
            <mxPoint x="20" y="260" as="targetPoint" />
          </mxGeometry>
        </mxCell>
        <mxCell id="I8xdXOpHyziN62xiilrK-8" value="" style="endArrow=none;html=1;rounded=0;entryX=0;entryY=0.5;entryDx=0;entryDy=0;exitX=0.999;exitY=0.573;exitDx=0;exitDy=0;exitPerimeter=0;" parent="1" source="WB_F4It5KlssIyPXTTCA-42" target="I8xdXOpHyziN62xiilrK-5" edge="1">
          <mxGeometry width="50" height="50" relative="1" as="geometry">
            <mxPoint x="-90" y="380" as="sourcePoint" />
            <mxPoint x="-40" y="330" as="targetPoint" />
          </mxGeometry>
        </mxCell>
        <mxCell id="MtMyun2IbxZLcijh5M6y-2" value="" style="endArrow=none;html=1;rounded=0;fontSize=12;startSize=8;endSize=8;curved=1;entryX=0.5;entryY=1;entryDx=0;entryDy=0;exitX=0.5;exitY=0;exitDx=0;exitDy=0;" parent="1" source="WB_F4It5KlssIyPXTTCA-40" target="WB_F4It5KlssIyPXTTCA-38" edge="1">
          <mxGeometry width="50" height="50" relative="1" as="geometry">
            <mxPoint x="-50" y="310" as="sourcePoint" />
            <mxPoint y="260" as="targetPoint" />
          </mxGeometry>
        </mxCell>
        <mxCell id="MtMyun2IbxZLcijh5M6y-3" value="" style="endArrow=none;html=1;rounded=0;fontSize=12;startSize=8;endSize=8;curved=1;entryX=0.5;entryY=1;entryDx=0;entryDy=0;exitX=0.5;exitY=0;exitDx=0;exitDy=0;" parent="1" source="WB_F4It5KlssIyPXTTCA-28" target="I8xdXOpHyziN62xiilrK-2" edge="1">
          <mxGeometry width="50" height="50" relative="1" as="geometry">
            <mxPoint x="-20" y="240" as="sourcePoint" />
            <mxPoint x="30" y="190" as="targetPoint" />
          </mxGeometry>
        </mxCell>
      </root>
    </mxGraphModel>
  </diagram>
</mxfile>
